<?xml version="1.0" encoding="utf-8"?>
<!-- Generator: Adobe Illustrator 21.1.0, SVG Export Plug-In . SVG Version: 6.00 Build 0)  -->
<svg version="1.1" id="Layer_1" xmlns="http://www.w3.org/2000/svg" xmlns:xlink="http://www.w3.org/1999/xlink" x="0px" y="0px"
	 viewBox="0 0 90 90.5" style="enable-background:new 0 0 90 90.5;" xml:space="preserve">
<path d="M35.5,45.8c-0.1-0.5-0.3-1-0.6-1.4c-0.2,1-1.1,1.7-2.1,1.7c-1.2,0-2.2-1-2.2-2.2c0-0.6,0.2-1.1,0.6-1.5
	c-2.4,0.1-4.3,2-4.3,4.4c0,2.4,2,4.4,4.4,4.4c1.9,0,3.6-1.3,4.1-3c0,0,0,0,0,0c-0.7-0.1-1.1-0.6-1.1-1.3
	C34.3,46.2,34.8,45.8,35.5,45.8z"/>
<path d="M82.8,50c0.1-0.9,0.1-1.9,0.1-2.8c-0.1-6.5-2.8-12.7-7.4-16.9c-0.7-2.4-1.7-4.7-3.2-6.7c-3.1-4.3-8.2-6.7-13.7-6.5
	c-0.4-1.3-1-2.7-2-3.8c-1.1-1.2-2.6-1.8-4.3-1.8c-2.6,0-4.6,1.7-6.2,4c-1.6-1-3.3-1.8-5-2.2c-3.8-0.9-7.7,0.3-10.1,2.9L13.6,1.5
	c-0.7-0.6-1.7-0.6-2.5,0C10.4,2,10.2,3,10.6,3.8l12.5,24c-0.7,0.1-1.5,0.2-2.2,0c-1-0.2-2-0.6-2.9-1.3c-0.1-0.1-0.2-0.2-0.4-0.3
	c-0.4-0.2-0.9-0.2-1.3,0c-0.4,0.2-0.7,0.5-0.8,1c-0.1,0.5-0.1,1,0,1.3l0,0.1c0.1,0.4,0.1,0.8,0.3,1.3c0.5,1.6,1.3,3,2.5,4.1
	c0.3,0.3,0.6,0.5,0.9,0.8c-2.9,3.3-6.1,6.8-9,9.9l-0.9,0.9c-2.8,3-5.6,6.1-7.1,10.1c-1.6,4.4-1.1,10.6,3.7,13.9
	c2.6,1.7,6,2.4,10.1,2.2c1-0.1,1.9-0.2,2.8-0.3c0,0,0,0,0,0c0,0,0,0,0,0c0,0,0,0,0.1,0c0.2-0.1,4-1.1,6.3-3.8
	c3.2,1.8,8.5,3.5,13.1,1.1c-1,3.9-2.4,9.9-3.5,15.9c-0.1,0.8,0.4,1.6,1.2,1.7c0.1,0,0.2,0,0.3,0c0.7,0,1.3-0.5,1.5-1.2
	c1.4-7.8,3.4-15.6,4.2-18.6c0.2-0.8-0.1-1.7-0.9-2.1c-0.8-0.4-1.7-0.3-2.3,0.3c-5.3,5.2-12.8-0.1-13.1-0.3c-0.4-0.3-0.8-0.3-1.2-0.2
	c-0.4,0.1-0.8,0.4-1,0.8c-0.7,1.3-2.2,2.3-3.5,2.9c-0.1-2.9-0.5-5.3-1-7.6c-0.6-2.7-1.6-5.3-2.8-7.8c-1-2.1-2.3-4-3.6-5.9
	c3-3.3,6.3-7,9.3-10.3c1.7,0.6,3.5,0.9,5.2,0.9c1.8,0,3.5-0.3,4.9-0.7c2.4-0.7,4.7-2.1,6.6-4c1-0.9,1.8-2,2.6-3
	c0.4-0.5,0.8-1.1,1.1-1.7c0,0,0,0,0,0c0.2,0.1,0.3,0.2,0.5,0.2c0.8,0.2,1.6-0.3,1.8-1.1c0.1-0.4,0.2-0.9,0.4-1.4c0,0,0-0.1,0-0.1
	c1.1-3.9,3.8-10.8,7.2-10.8c0,0,0,0,0,0c0.9,0,1.6,0.3,2.2,0.9c1.3,1.4,1.7,4.1,1.6,6.2c-0.2,4.1-3.2,7.5-7.1,8.1
	c-0.8,0.1-1.4,0.9-1.3,1.7c0.1,0.7,0.8,1.3,1.5,1.3c0.1,0,0.1,0,0.2,0c1.3-0.2,2.6-0.6,3.8-1.3c4.5,2.3,7,8.2,7.1,12.9
	c0.1,4.4-1.9,8.7-5.3,11.1c-0.6,0.5-0.9,1.2-0.7,2c0.2,0.7,0.8,1.2,1.6,1.3c0.3,0,0.7,0,1,0c1.8,0,3.7-0.4,5.4-1.1
	c-0.1,1.8-1,3.6-2.3,4.7c-1.6,1.4-4.1,2-6.2,1.5c-0.7-0.2-1.4,0.1-1.9,0.6c-0.4,0.6-0.5,1.3-0.1,2c0.9,1.5,2.1,2.7,3.7,3.5
	c-1.8,1.4-2.9,3.5-3.2,5.9C52,78.8,53,82.1,55,84.2c1.7,1.8,3.9,2.8,6.7,3.2c0.1,0,0.2,0,0.2,0c0.7,0,1.3-0.3,1.7-0.9
	c0.4-0.6,0.5-1.5,0.1-2.1c-0.2-0.3-0.4-0.7-0.7-1c-0.4-0.5-0.7-1-0.8-1.4c-0.2-1.1,0-2,0.5-2.6c1.2-1.5,4.7-1.8,7.5-2
	c1.4-0.1,2.8-0.2,3.9-0.5c6.4-1.5,11.6-7.1,12.6-13.6C87.5,58.8,86,53.7,82.8,50z M16.1,60.9c0.5,2.3,0.9,4.8,1,7.8
	c-0.4,0-0.7,0.1-1.1,0.1c-3.5,0.2-6.2-0.3-8.2-1.7c-3.5-2.3-3.8-7-2.6-10.3c1.1-3,3.2-5.5,5.4-7.9c1.1,1.6,2.1,3.2,3,4.9
	C14.7,56,15.5,58.4,16.1,60.9z M26.3,26.1c-0.1,0.1-0.3,0.3-0.4,0.4L24,22.9c0.9-1.2,2.4-3.5,3.1-6l2.2,1.8c0,0.1-0.1,0.1-0.1,0.2
	c-0.4,1-0.7,2-0.9,3c-0.1,0.5-0.2,1-0.4,1.4C27.6,24.4,27,25.4,26.3,26.1z M20.8,16.9c0.7-1.3,1.1-2.7,1.5-4.1l2.2,1.9c0,0,0,0,0,0
	c-0.2,1.6-1.1,3.5-2.1,5.2L20.8,16.9z M19.7,10.6c-0.2,0.9-0.4,1.9-0.7,2.8l-3.2-6.1L19.7,10.6z M40.7,24.5
	c-0.3,0.4-0.5,0.8-0.7,1.2c-0.1,0.2-0.2,0.4-0.3,0.6c-0.3,0.5-0.6,1-0.9,1.4c-0.7,0.9-1.4,1.8-2.3,2.6c-1.6,1.5-3.5,2.7-5.4,3.3
	c-3.3,1-8,0.9-10.8-1.8c-0.4-0.4-0.7-0.8-1-1.2c0.4,0.1,0.7,0.2,1.1,0.3c1.4,0.3,2.9,0.2,4.3-0.3c1.4-0.4,2.7-1.2,3.7-2.3
	c1.1-1.1,1.9-2.5,2.3-4c0.2-0.5,0.3-1,0.4-1.6c0.2-0.9,0.4-1.8,0.8-2.6c1.4-3.3,5.4-4.6,8.5-3.9c1.4,0.3,2.9,1,4.2,1.9
	c-0.9,1.9-1.6,3.8-2.1,5.3C41.8,23.5,41.1,23.9,40.7,24.5z M63.3,44.2c-0.1-5.1-2.7-11.6-7.5-14.8c2-2,3.2-4.7,3.4-7.8
	c0-0.4,0-1,0-1.6c4.4-0.1,8.4,1.8,10.8,5.2c4.7,6.6,4.7,16-0.2,22.7c-2.3,3.2-6.2,6.4-10.4,7.4C61.9,52.4,63.3,48.3,63.3,44.2z
	 M61.9,64.6c2.4-2.1,3.6-5.3,3.3-8.5c2.8-1.7,5.2-4,6.9-6.4c3-4.1,4.4-9,4.2-13.9c2.2,3.3,3.5,7.2,3.6,11.4c0.1,6.1-2.2,11.9-6.4,16
	c-1.2,1.2-2.6,2.2-4.1,3c-2.3,1.3-4.7,2-7,2.1c-1.3,0.1-4,0-6-1.3C58.4,66.7,60.4,65.9,61.9,64.6z M83.8,62.8
	C83,68.2,78.7,72.7,73.5,74c-0.9,0.2-2.1,0.3-3.5,0.4c-3.5,0.3-7.5,0.6-9.6,3.1c-1,1.3-1.4,2.9-1.1,4.9c0.1,0.6,0.3,1.1,0.5,1.5
	c-1.1-0.4-2-1-2.7-1.8c-1.4-1.5-2.2-3.9-1.9-6.1c0.2-1.8,1-3.2,2.3-4.1c0.5-0.4,1.1-0.7,1.8-0.9c0.8,0.1,1.5,0.2,2.4,0.2
	c0.3,0,0.5,0,0.8,0c2.8-0.1,5.7-1,8.4-2.5c1.7-0.9,3.3-2.1,4.7-3.5c3.1-3,5.4-6.9,6.5-11.2C83.6,56.8,84.3,60,83.8,62.8z"/>
</svg>
